<?xml version="1.0" standalone="no"?>
<!DOCTYPE svg PUBLIC "-//W3C//DTD SVG 20010904//EN"
 "http://www.w3.org/TR/2001/REC-SVG-20010904/DTD/svg10.dtd">
<svg version="1.0" xmlns="http://www.w3.org/2000/svg"
 width="250.000000pt" height="250.000000pt" viewBox="0 0 250.000000 250.000000"
 preserveAspectRatio="xMidYMid meet">
<metadata>
Created by potrace 1.15, written by Peter Selinger 2001-2017
</metadata>
<g transform="translate(0.000000,250.000000) scale(0.100000,-0.100000)"
fill="#000000" stroke="none">
<path d="M94 1523 c-25 -27 -25 -27 -22 -201 l3 -174 30 -24 c27 -22 39 -24
130 -24 103 0 104 0 178 53 26 19 26 19 73 -17 47 -36 47 -36 150 -36 100 0
105 1 136 29 30 27 33 34 36 105 l4 76 47 0 c26 0 56 7 69 16 20 14 22 14 22
0 0 -11 10 -16 30 -16 20 0 30 5 30 15 0 13 5 12 28 -5 24 -18 36 -19 125 -13
l97 6 1 41 1 41 12 -40 c10 -35 15 -40 41 -40 26 0 31 5 41 40 l12 40 1 -42 1
-43 130 0 c117 0 132 2 150 20 l20 20 0 -20 c0 -15 7 -20 25 -20 19 0 25 5 25
23 1 20 2 20 11 4 16 -27 55 -38 115 -31 36 5 54 11 54 20 0 19 46 18 54 -1 4
-12 24 -15 86 -15 73 0 80 2 80 20 0 16 -7 20 -35 20 l-35 0 0 70 c0 68 -1 70
-25 70 -23 0 -25 -3 -26 -52 l-1 -53 -17 50 c-16 46 -20 50 -54 53 l-36 3 -18
-62 c-13 -43 -25 -64 -40 -72 -36 -16 -55 -2 -51 40 3 36 5 38 37 38 26 0 36
5 42 22 7 20 4 23 -27 29 -42 8 -88 -10 -102 -39 -10 -20 -11 -20 -11 11 -1
27 -5 32 -26 32 -19 0 -25 -5 -25 -22 0 -21 0 -21 -21 -2 -19 17 -37 19 -161
19 l-140 0 -17 -55 -17 -55 -13 57 -14 58 -114 -2 c-96 0 -117 -4 -138 -20
-25 -19 -25 -19 -25 1 0 17 -6 21 -30 21 -24 0 -30 -4 -30 -22 0 -14 -3 -19
-8 -11 -11 17 -58 33 -98 33 -27 0 -41 7 -61 30 l-25 30 -319 0 -320 0 -25
-27z m240 -144 c14 -17 26 -37 26 -45 0 -41 -49 -93 -87 -94 -12 0 -35 12 -52
26 -63 52 -28 144 54 144 25 0 40 -8 59 -31z m330 5 c36 -37 35 -78 -5 -115
-38 -36 -62 -36 -106 -3 -26 19 -33 32 -33 58 0 77 89 114 144 60z"/>
</g>
</svg>
