<?xml version="1.0" standalone="no"?>
<!DOCTYPE svg PUBLIC "-//W3C//DTD SVG 20010904//EN"
 "http://www.w3.org/TR/2001/REC-SVG-20010904/DTD/svg10.dtd">
<svg version="1.0" xmlns="http://www.w3.org/2000/svg"
 width="327.9pt" height="104.6pt" viewBox="0 0 327.9 104.6"
 preserveAspectRatio="xMidYMid meet" style="enable-background:new 0 0 327.9 104.6;">
<metadata>
Created by potrace 1.15, written by Peter Selinger 2001-2017
</metadata>
<g transform="translate(0.000000,123.000000) scale(0.100000,-0.100000)"
fill="#000000" stroke="none">
<path d="M383 1216 c-99 -32 -214 -131 -253 -218 -27 -60 -26 -68 15 -68 29 0
37 5 51 33 39 75 84 124 146 158 55 29 74 34 154 37 160 7 266 -45 337 -165
30 -53 37 -58 71 -61 35 -3 37 -2 31 20 -28 93 -127 202 -225 247 -47 21 -72
25 -170 28 -78 2 -129 -2 -157 -11z"/>
<path d="M26 859 l-26 -20 0 -190 0 -190 25 -25 26 -26 177 4 177 3 58 33 58
33 57 -33 57 -33 178 -3 c174 -4 180 -3 203 19 13 12 26 30 30 41 4 15 16 18
80 18 48 0 86 6 104 15 27 14 30 14 30 0 0 -12 16 -15 90 -15 74 0 90 3 90 15
0 14 3 13 25 -1 23 -15 80 -16 602 -15 484 2 581 5 605 17 25 13 28 13 28 -1
0 -12 16 -15 90 -15 74 0 90 3 90 15 0 13 4 13 27 -2 24 -16 48 -18 188 -15
127 2 162 6 171 18 10 13 12 13 18 -1 5 -13 36 -15 211 -15 l205 0 0 80 0 80
-65 0 -65 0 0 90 0 90 -90 0 -90 0 -1 -37 -1 -38 -12 35 -13 35 -86 3 -86 3
-12 -42 -13 -41 -19 26 c-10 15 -33 34 -51 43 -42 22 -141 22 -183 -1 -29 -14
-33 -15 -33 -1 0 12 -16 15 -90 15 -72 0 -90 -3 -90 -14 0 -13 -4 -13 -35 0
-28 11 -116 14 -500 14 -410 0 -465 -2 -465 -15 0 -14 -4 -13 -32 1 -44 23
-153 23 -195 1 -29 -15 -33 -16 -33 -2 0 12 -16 15 -90 15 -72 0 -90 -3 -90
-14 0 -13 -4 -13 -35 0 -19 8 -66 14 -108 14 -65 0 -76 3 -97 25 l-23 25 -472
0 c-463 0 -473 0 -499 -21z m952 -208 c2 -104 -1 -158 -9 -167 -9 -11 -41 -14
-128 -14 -121 0 -189 14 -241 50 -52 36 -84 35 -168 -7 -74 -36 -82 -38 -195
-42 -64 -2 -128 0 -142 3 l-25 6 0 159 c0 87 3 161 7 164 3 4 207 6 452 5
l446 -3 3 -154z m239 109 c42 -25 61 -84 45 -138 -19 -64 -41 -77 -143 -80
l-89 -4 0 121 0 121 78 0 c59 0 85 -5 109 -20z m173 -100 l0 -120 -40 0 -40 0
0 120 0 120 40 0 40 0 0 -120z m259 105 c28 -14 41 -33 41 -61 0 -9 -11 -14
-35 -14 -19 0 -35 5 -35 10 0 6 -12 15 -26 21 -42 15 -74 -11 -74 -61 0 -22 7
-45 16 -54 19 -20 58 -21 73 -2 10 12 7 15 -16 18 -20 2 -29 9 -31 26 -3 21 0
22 67 22 l71 0 0 -65 c0 -63 -1 -65 -25 -65 -14 0 -25 4 -25 9 0 5 -18 2 -39
-6 -52 -20 -105 -10 -143 27 -24 24 -28 36 -28 82 1 92 36 127 128 128 29 0
66 -7 81 -15z m181 -105 l0 -120 -40 0 -40 0 0 120 0 120 40 0 40 0 0 -120z
m176 53 l20 -68 18 68 18 67 54 0 54 0 0 -120 0 -120 -40 0 -39 0 -3 63 -3 62
-15 -60 c-16 -58 -17 -60 -50 -60 -32 0 -34 2 -51 60 l-17 60 -1 -62 -1 -63
-35 0 -35 0 0 120 0 120 54 0 53 0 19 -67z m424 37 l0 -30 -65 0 c-51 0 -65
-3 -65 -15 0 -12 13 -15 55 -15 54 0 55 0 55 -30 0 -30 -1 -30 -55 -30 -48 0
-55 -2 -55 -20 0 -18 7 -20 65 -20 63 0 65 -1 65 -25 l0 -25 -105 0 -105 0 0
120 0 120 105 0 105 0 0 -30z m221 14 c66 -34 77 -149 18 -199 -27 -22 -39
-25 -115 -25 l-84 0 0 120 0 120 75 0 c49 0 87 -6 106 -16z m179 -104 l0 -120
-40 0 -40 0 0 120 0 120 40 0 40 0 0 -120z m261 91 c16 -16 29 -39 29 -50 0
-31 -56 -29 -86 4 -23 25 -50 25 -66 1 -14 -20 -8 -84 8 -100 21 -21 40 -20
64 4 28 28 80 27 80 0 0 -53 -88 -93 -159 -71 -51 15 -72 41 -78 95 -7 59 2
93 34 122 21 20 36 24 85 24 52 0 63 -3 89 -29z m274 -83 c22 -62 42 -116 43
-120 2 -4 -15 -8 -37 -8 -28 0 -44 5 -47 15 -4 10 -20 15 -50 15 -32 0 -44 -4
-44 -15 0 -11 -12 -15 -44 -15 l-44 0 27 73 c15 39 35 93 45 120 18 47 18 47
64 47 l47 0 40 -112z m155 22 l0 -90 65 0 65 0 0 -30 0 -30 -105 0 -105 0 0
120 0 120 40 0 40 0 0 -90z"/>
<path d="M100 355 c0 -25 68 -142 111 -192 100 -116 176 -153 316 -153 90 0
99 2 165 36 84 45 178 143 219 229 37 77 37 85 -5 85 -31 0 -36 -4 -71 -71
-118 -225 -343 -283 -520 -133 -48 40 -72 71 -101 129 -38 73 -40 75 -76 75
-21 0 -38 -2 -38 -5z"/>
</g>
</svg>
